<?xml version="1.0" encoding="UTF-8" standalone="no"?>
<svg
   width="16"
   height="16"
   version="1.1"
   id="svg8"
   sodipodi:docname="com.github.azab.mushroom-symbolic.svg"
   inkscape:version="1.2.1 (9c6d41e410, 2022-07-14)"
   xml:space="preserve"
   xmlns:inkscape="http://www.inkscape.org/namespaces/inkscape"
   xmlns:sodipodi="http://sodipodi.sourceforge.net/DTD/sodipodi-0.dtd"
   xmlns="http://www.w3.org/2000/svg"
   xmlns:svg="http://www.w3.org/2000/svg"><defs
     id="defs12" /><sodipodi:namedview
     id="namedview10"
     pagecolor="#505050"
     bordercolor="#eeeeee"
     borderopacity="1"
     inkscape:showpageshadow="0"
     inkscape:pageopacity="0"
     inkscape:pagecheckerboard="0"
     inkscape:deskcolor="#505050"
     showgrid="false"
     inkscape:zoom="5.6568543"
     inkscape:cx="-37.299883"
     inkscape:cy="30.759145"
     inkscape:window-width="1440"
     inkscape:window-height="831"
     inkscape:window-x="0"
     inkscape:window-y="32"
     inkscape:window-maximized="1"
     inkscape:current-layer="layer1" /><g
     inkscape:groupmode="layer"
     id="layer1"
     inkscape:label="Layer 1"
     transform="matrix(1.1831718,0,0,1.1831718,-0.76305511,-0.65870859)"><path
       style="display:inline;fill:#2e3436;fill-opacity:1;fill-rule:evenodd;stroke-width:0.0596882;stroke-linecap:round;stroke-linejoin:round;paint-order:fill markers stroke"
       d="M 5.8134424,8.5243883 C 5.6602835,9.4972153 5.4504433,10.554372 5.3927732,11.624149 5.3386177,12.924519 6.349818,13.557873 7.4406028,13.621751 8.7242856,13.545472 9.572379,12.935264 9.5735839,11.624149 9.4585534,10.587278 9.2732375,9.5077569 9.1095466,8.5243883 Z"
       id="path300"
       sodipodi:nodetypes="cccccc" /><path
       id="path398-7"
       style="display:inline;fill:#2e3436;fill-opacity:1;fill-rule:evenodd;stroke-width:0.0596882;stroke-linecap:round;stroke-linejoin:round;paint-order:fill markers stroke"
       d="M 7.3085166,1.359375 C 6.4459381,1.3449069 5.6094054,1.6326132 4.8260948,2.0449219 5.1148248,2.2124895 5.2959663,2.5178424 5.3046105,2.8515625 5.304329,3.3829219 4.8730797,3.8133082 4.3417197,3.8125 3.9109461,3.8007837 3.5405832,3.5038553 3.4354698,3.0859375 2.6127126,3.9593854 2.0119312,5.0954178 1.9589073,6.5253906 c -0.011881,0.7461702 0.4877205,1.4273823 1.1269531,1.7499999 1.6007066,0.7049836 7.1309886,0.6605057 8.7343746,0 C 12.698901,7.802222 12.948339,7.1881594 12.986251,6.5253906 12.969638,5.880145 12.817857,5.2862135 12.595626,4.7324218 12.328547,5.1207009 11.889134,5.3546173 11.417892,5.3593751 10.618572,5.3594064 9.9705821,4.7114292 9.9706262,3.9121094 9.9798147,3.3137817 10.356305,2.7828139 10.917892,2.5761719 9.9119092,1.7992972 8.6577313,1.3199542 7.3085166,1.359375 Z M 7.6405479,1.9433594 C 8.0021686,1.9427241 8.2954804,2.2360356 8.2948448,2.5976563 8.2944006,2.9585139 8.0014054,3.2506337 7.6405479,3.25 7.2804527,3.2495555 6.9886483,2.9577511 6.9882042,2.5976563 6.9875692,2.2367989 7.2796901,1.9438045 7.6405479,1.9433594 Z M 7.9491417,4.341797 C 8.512887,4.3420159 8.9695377,4.7995368 8.9686729,5.3632812 8.9684539,5.9262631 8.5121238,6.3825979 7.9491417,6.3828124 7.3853969,6.3836757 6.9278713,5.9270263 6.9276574,5.3632812 6.926791,4.7987733 7.3846334,4.3409305 7.9491417,4.341797 Z M 4.6346886,4.7675781 C 5.3812532,4.7672966 5.9865355,5.3725764 5.9862512,6.1191407 5.9865327,6.8657047 5.3812532,7.4709873 4.6346886,7.4707033 3.888124,7.4709848 3.2828417,6.8657047 3.2831261,6.1191407 3.2828414,5.3725764 3.888124,4.7672941 4.6346886,4.7675781 Z m 5.8144534,1.6796875 a 0.84186583,0.84186623 0 0 1 0.841797,0.841797 0.84186583,0.84186623 0 0 1 -0.841797,0.8417967 0.84186583,0.84186623 0 0 1 -0.8417971,-0.8417967 0.84186583,0.84186623 0 0 1 0.8417971,-0.841797 z" /><path
       style="fill:none;fill-opacity:1;fill-rule:evenodd;stroke:#2e3436;stroke-width:0.605;stroke-linecap:round;stroke-linejoin:round;stroke-dasharray:none;stroke-opacity:1;paint-order:fill markers stroke"
       d="m 10.329806,2.5308189 c 0.87152,0.5515387 1.724054,1.4833431 2.072432,2.5526285"
       id="path5058"
       sodipodi:nodetypes="cc" /><path
       style="fill:none;fill-opacity:1;fill-rule:evenodd;stroke:#2e3436;stroke-width:0.605;stroke-linecap:round;stroke-linejoin:round;stroke-dasharray:none;stroke-opacity:1;paint-order:fill markers stroke"
       d="M 3.4410956,3.5379382 C 3.9749951,2.894021 4.3601853,2.5936985 5.2687447,2.1638759"
       id="path5168"
       sodipodi:nodetypes="cc" /></g></svg>
